<svg
  viewBox="0 0 245 441"
  xmlns="http://www.w3.org/2000/svg"
  fill="#02040A"
  preserveAspectRatio="xMidYMid meet"
  aria-hidden="true"
>
  <path d="M192.5 0H52.5C38.5808 0.0151934 25.236 5.5513 15.3937 15.3937C5.55131 25.236 0.0151934 38.5808 0 52.5V388.5C0.0151934 402.419 5.55131 415.764 15.3937 425.606C25.236 435.449 38.5808 440.985 52.5 441H192.5C206.419 440.985 219.764 435.449 229.606 425.606C239.449 415.764 244.985 402.419 245 388.5V52.5C244.985 38.5808 239.449 25.236 229.606 15.3937C219.764 5.5513 206.419 0.0151934 192.5 0ZM224 388.5C223.991 396.852 220.669 404.858 214.764 410.764C208.858 416.669 200.852 419.991 192.5 420H52.5C44.1485 419.991 36.1416 416.669 30.2362 410.764C24.3308 404.858 21.0091 396.852 21 388.5V371H224V388.5ZM224 350H21V52.5C21.0091 44.1485 24.3308 36.1416 30.2362 30.2362C36.1416 24.3308 44.1485 21.0091 52.5 21H192.5C200.852 21.0091 208.858 24.3308 214.764 30.2362C220.669 36.1416 223.991 44.1485 224 52.5V350Z"/>
  <path d="M150.5 42H94.5C91.7152 42 89.0445 43.1062 87.0754 45.0754C85.1062 47.0445 84 49.7152 84 52.5C84 55.2848 85.1062 57.9555 87.0754 59.9246C89.0445 61.8938 91.7152 63 94.5 63H150.5C153.285 63 155.955 61.8938 157.925 59.9246C159.894 57.9555 161 55.2848 161 52.5C161 49.7152 159.894 47.0445 157.925 45.0754C155.955 43.1062 153.285 42 150.5 42Z"/>
</svg>
